<?xml version="1.0" encoding="UTF-8" standalone="no"?>
<!-- Generator: Adobe Illustrator 14.0.0, SVG Export Plug-In . SVG Version: 6.00 Build 43363)  -->

<svg
   xmlns:dc="http://purl.org/dc/elements/1.1/"
   xmlns:cc="http://creativecommons.org/ns#"
   xmlns:rdf="http://www.w3.org/1999/02/22-rdf-syntax-ns#"
   xmlns:svg="http://www.w3.org/2000/svg"
   xmlns="http://www.w3.org/2000/svg"
   xmlns:sodipodi="http://sodipodi.sourceforge.net/DTD/sodipodi-0.dtd"
   xmlns:inkscape="http://www.inkscape.org/namespaces/inkscape"
   version="1.1"
   x="0px"
   y="0px"
   width="37px"
   height="37px"
   viewBox="0 0 37 37"
   enable-background="new 0 0 37 37"
   xml:space="preserve"
   id="svg3421"
   inkscape:version="0.91 r13725"
   sodipodi:docname="1_n.svg"><metadata
     id="metadata3439"><rdf:RDF><cc:Work
         rdf:about=""><dc:format>image/svg+xml</dc:format><dc:type
           rdf:resource="http://purl.org/dc/dcmitype/StillImage" /><dc:title></dc:title></cc:Work></rdf:RDF></metadata><defs
     id="defs3437" /><sodipodi:namedview
     pagecolor="#ffffff"
     bordercolor="#666666"
     borderopacity="1"
     objecttolerance="10"
     gridtolerance="10"
     guidetolerance="10"
     inkscape:pageopacity="0"
     inkscape:pageshadow="2"
     inkscape:window-width="3200"
     inkscape:window-height="1758"
     id="namedview3435"
     showgrid="true"
     showguides="false"
     inkscape:zoom="36.081557"
     inkscape:cx="12.750753"
     inkscape:cy="17.768724"
     inkscape:window-x="0"
     inkscape:window-y="42"
     inkscape:window-maximized="1"
     inkscape:current-layer="layer3"><inkscape:grid
       type="xygrid"
       id="grid3691"
       units="pc"
       enabled="true"
       visible="true" /></sodipodi:namedview><g
     inkscape:groupmode="layer"
     id="layer3"
     inkscape:label="moon"
     style="display:inline;opacity:1"><path
       d="m 17.58228,26.949783 c -1.440321,-0.124388 -2.7799,-0.584793 -3.954119,-1.35901 -0.815724,-0.537843 -1.569039,-1.249829 -2.151453,-2.033419 -1.364095,-1.835276 -1.920184,-4.169539 -1.5354,-6.445053 0.387281,-2.290273 1.736437,-4.344977 3.698212,-5.632209 1.149586,-0.754307 2.496851,-1.224577 3.851462,-1.34437 0.257077,-0.02274 0.852509,-0.04641 0.839944,-0.03339 -0.005,0.0052 -0.06254,0.05208 -0.127818,0.104164 -0.383559,0.306066 -0.779357,0.705832 -1.112736,1.123889 -1.382539,1.733699 -1.870672,4.011765 -1.324411,6.180895 0.662395,2.630287 2.814262,4.685498 5.468252,5.222633 0.540285,0.109347 0.811166,0.134945 1.433383,0.135453 0.440585,3.16e-4 0.622711,-0.0068 0.821685,-0.03243 0.787368,-0.101296 1.506012,-0.306897 2.207512,-0.631563 0.08934,-0.04134 0.165989,-0.07162 0.170342,-0.06726 0.0043,0.0043 -0.04993,0.121615 -0.120633,0.260586 -0.549666,1.080442 -1.369778,2.06436 -2.357953,2.828919 -1.280558,0.990778 -2.854928,1.596462 -4.48053,1.72373 -0.272263,0.02131 -1.071711,0.02037 -1.325739,-0.0016 z"
       id="path3340"
       inkscape:connector-curvature="0"
       style="fill:#a1b1b3;fill-opacity:1" /></g></svg>