<?xml version="1.0" standalone="no"?>
<!DOCTYPE svg PUBLIC "-//W3C//DTD SVG 20010904//EN"
 "http://www.w3.org/TR/2001/REC-SVG-20010904/DTD/svg10.dtd">
<svg version="1.0" xmlns="http://www.w3.org/2000/svg"
 width="700.000000pt" height="700.000000pt" viewBox="0 0 700.000000 700.000000"
 preserveAspectRatio="xMidYMid meet">
<metadata>
Created by potrace 1.11, written by Peter Selinger 2001-2013
</metadata>
<g transform="translate(0.000000,700.000000) scale(0.100000,-0.100000)"
fill="#000000" stroke="none">
<path d="M3421 6848 c-41 -79 -102 -197 -136 -263 -34 -66 -94 -181 -132 -255
-39 -74 -105 -202 -148 -285 -96 -185 -166 -319 -171 -324 -2 -2 -36 16 -76
39 -40 23 -89 51 -108 62 -19 11 -262 151 -540 310 -278 160 -509 293 -513
295 -7 4 -3 -92 8 -177 2 -19 7 -71 10 -115 3 -44 8 -98 10 -120 2 -22 7 -71
10 -110 3 -38 8 -88 10 -110 4 -42 12 -126 20 -232 10 -130 15 -189 20 -228 2
-22 7 -71 10 -110 10 -132 17 -200 20 -205 11 -19 -20 -30 -95 -35 -141 -8
-250 -15 -360 -20 -58 -3 -139 -7 -180 -10 -41 -2 -124 -7 -185 -10 -149 -8
-239 -13 -370 -21 -60 -3 -135 -8 -165 -9 -30 -2 -59 -3 -64 -4 -9 -1 13 -37
44 -74 19 -22 348 -450 385 -501 11 -15 30 -39 42 -54 12 -15 65 -83 117 -152
53 -69 137 -178 187 -243 50 -65 88 -122 83 -126 -9 -8 -994 -726 -1092 -795
-28 -21 -52 -41 -52 -45 0 -4 21 -14 48 -23 26 -9 92 -32 147 -52 55 -21 125
-45 155 -56 30 -10 156 -55 280 -100 124 -45 232 -83 240 -85 8 -2 47 -16 85
-30 39 -15 81 -31 95 -35 49 -16 284 -100 287 -104 3 -3 -171 -463 -197 -521
-5 -11 -19 -45 -30 -75 -11 -30 -25 -64 -29 -75 -5 -11 -27 -67 -49 -125 -23
-58 -65 -168 -95 -245 -30 -77 -69 -176 -86 -219 -17 -44 -29 -81 -28 -83 2
-1 50 9 108 23 57 14 114 27 125 30 12 2 88 20 170 40 183 43 363 86 509 120
61 15 162 39 225 55 63 15 129 30 145 33 17 3 46 10 65 16 19 5 37 6 41 2 5
-6 44 -191 63 -305 3 -15 7 -35 10 -45 3 -9 7 -33 10 -52 3 -19 8 -46 11 -60
3 -14 8 -36 11 -50 16 -80 67 -338 70 -355 8 -40 43 -221 48 -245 10 -45 16
-75 21 -105 2 -16 13 -68 23 -113 l18 -84 48 54 c27 29 135 143 240 252 105
110 202 211 216 226 34 36 394 411 448 467 l42 43 38 -38 c20 -21 111 -116
202 -211 91 -95 192 -201 225 -236 206 -214 401 -419 456 -478 35 -37 66 -67
70 -67 4 0 10 15 13 33 8 44 12 61 30 147 8 41 17 89 20 105 3 17 8 39 10 50
3 11 23 112 45 225 22 113 52 264 66 335 15 72 28 139 29 150 10 64 70 351 75
357 4 4 69 -8 146 -26 77 -19 183 -44 235 -56 52 -12 149 -36 215 -52 66 -16
127 -31 135 -33 31 -6 371 -86 509 -120 80 -19 147 -32 149 -30 3 3 -1 11 -8
20 -7 8 -10 15 -7 15 4 0 -2 20 -13 45 -45 106 -490 1258 -487 1261 4 4 171
64 467 169 417 147 528 186 545 195 11 5 55 21 98 35 43 14 88 30 100 35 22 8
57 22 67 25 3 1 17 5 33 9 34 10 34 21 0 43 -16 10 -32 21 -38 26 -24 19 -463
339 -826 603 -138 100 -252 184 -255 187 -4 4 410 554 533 707 98 122 332 434
329 438 -3 2 -29 6 -58 7 -29 2 -107 6 -173 9 -66 4 -156 9 -200 11 -44 3
-116 7 -160 10 -44 3 -129 7 -190 10 -60 3 -139 8 -175 10 -36 2 -121 7 -190
11 -69 3 -145 8 -170 9 -25 1 -59 3 -77 4 -27 1 -31 4 -28 24 2 12 6 58 10
102 3 44 8 94 10 110 3 27 11 107 20 230 2 22 7 71 10 110 3 38 8 90 10 115 5
65 16 189 20 230 5 48 13 141 20 230 3 41 8 91 10 110 2 19 7 68 10 108 l6 73
-43 -24 c-57 -32 -727 -417 -991 -569 -114 -66 -210 -119 -212 -116 -4 4 -27
48 -185 353 -51 99 -116 225 -145 280 -97 186 -172 329 -251 483 -43 83 -81
152 -84 152 -3 0 -38 -64 -79 -142z"/>
</g>
</svg>
